<svg id="visual" viewBox="0 0 2048 500" width="2048" height="500" xmlns="http://www.w3.org/2000/svg" xmlns:xlink="http://www.w3.org/1999/xlink" version="1.1"><path d="M0 223L48.8 242.3C97.7 261.7 195.3 300.3 292.8 303.7C390.3 307 487.7 275 585.2 240.5C682.7 206 780.3 169 877.8 152C975.3 135 1072.7 138 1170.2 165.3C1267.7 192.7 1365.3 244.3 1462.8 261.3C1560.3 278.3 1657.7 260.7 1755.2 271C1852.7 281.3 1950.3 319.7 1999.2 338.8L2048 358L2048 501L1999.2 501C1950.3 501 1852.7 501 1755.2 501C1657.7 501 1560.3 501 1462.8 501C1365.3 501 1267.7 501 1170.2 501C1072.7 501 975.3 501 877.8 501C780.3 501 682.7 501 585.2 501C487.7 501 390.3 501 292.8 501C195.3 501 97.7 501 48.8 501L0 501Z" fill="#ffffff" stroke-linecap="round" stroke-linejoin="miter"></path></svg>