<svg id="visual" viewBox="0 0 2048 500" width="2048" height="500" xmlns="http://www.w3.org/2000/svg" xmlns:xlink="http://www.w3.org/1999/xlink" version="1.1"><path d="M0 148L48.8 176.5C97.7 205 195.3 262 292.8 268.3C390.3 274.7 487.7 230.3 585.2 207.3C682.7 184.3 780.3 182.7 877.8 173.8C975.3 165 1072.7 149 1170.2 156.5C1267.7 164 1365.3 195 1462.8 226.2C1560.3 257.3 1657.7 288.7 1755.2 303.5C1852.7 318.3 1950.3 316.7 1999.2 315.8L2048 315L2048 501L1999.2 501C1950.3 501 1852.7 501 1755.2 501C1657.7 501 1560.3 501 1462.8 501C1365.3 501 1267.7 501 1170.2 501C1072.7 501 975.3 501 877.8 501C780.3 501 682.7 501 585.2 501C487.7 501 390.3 501 292.8 501C195.3 501 97.7 501 48.8 501L0 501Z" fill="#ffffff" stroke-linecap="round" stroke-linejoin="miter"></path></svg>