<svg id="visual" viewBox="0 0 2048 500" width="2048" height="500" xmlns="http://www.w3.org/2000/svg" xmlns:xlink="http://www.w3.org/1999/xlink" version="1.1"><path d="M0 171L48.8 191.5C97.7 212 195.3 253 292.8 281.3C390.3 309.7 487.7 325.3 585.2 332.3C682.7 339.3 780.3 337.7 877.8 331.8C975.3 326 1072.7 316 1170.2 284.3C1267.7 252.7 1365.3 199.3 1462.8 189.3C1560.3 179.3 1657.7 212.7 1755.2 236.2C1852.7 259.7 1950.3 273.3 1999.2 280.2L2048 287L2048 501L1999.2 501C1950.3 501 1852.7 501 1755.2 501C1657.7 501 1560.3 501 1462.8 501C1365.3 501 1267.7 501 1170.2 501C1072.7 501 975.3 501 877.8 501C780.3 501 682.7 501 585.2 501C487.7 501 390.3 501 292.8 501C195.3 501 97.7 501 48.8 501L0 501Z" fill="#ffffff" stroke-linecap="round" stroke-linejoin="miter"></path></svg>