<svg id="visual" viewBox="0 0 2048 500" width="2048" height="500" xmlns="http://www.w3.org/2000/svg" xmlns:xlink="http://www.w3.org/1999/xlink" version="1.1"><path d="M0 363L48.8 340.7C97.7 318.3 195.3 273.7 292.8 265.8C390.3 258 487.7 287 585.2 300.7C682.7 314.3 780.3 312.7 877.8 304C975.3 295.3 1072.7 279.7 1170.2 260.8C1267.7 242 1365.3 220 1462.8 199C1560.3 178 1657.7 158 1755.2 187.2C1852.7 216.3 1950.3 294.7 1999.2 333.8L2048 373L2048 501L1999.2 501C1950.3 501 1852.7 501 1755.2 501C1657.7 501 1560.3 501 1462.8 501C1365.3 501 1267.7 501 1170.2 501C1072.7 501 975.3 501 877.8 501C780.3 501 682.7 501 585.2 501C487.7 501 390.3 501 292.8 501C195.3 501 97.7 501 48.8 501L0 501Z" fill="#ffffff" stroke-linecap="round" stroke-linejoin="miter"></path></svg>