<svg id="visual" viewBox="0 0 2048 500" width="2048" height="500" xmlns="http://www.w3.org/2000/svg" xmlns:xlink="http://www.w3.org/1999/xlink" version="1.1"><path d="M0 277L48.8 255.7C97.7 234.3 195.3 191.7 292.8 193.3C390.3 195 487.7 241 585.2 250C682.7 259 780.3 231 877.8 214.7C975.3 198.3 1072.7 193.7 1170.2 201.2C1267.7 208.7 1365.3 228.3 1462.8 257.5C1560.3 286.7 1657.7 325.3 1755.2 326.5C1852.7 327.7 1950.3 291.3 1999.2 273.2L2048 255L2048 501L1999.2 501C1950.3 501 1852.7 501 1755.2 501C1657.7 501 1560.3 501 1462.8 501C1365.3 501 1267.7 501 1170.2 501C1072.7 501 975.3 501 877.8 501C780.3 501 682.7 501 585.2 501C487.7 501 390.3 501 292.8 501C195.3 501 97.7 501 48.8 501L0 501Z" fill="#ffffff" stroke-linecap="round" stroke-linejoin="miter"></path></svg>