<svg id="visual" viewBox="0 0 2048 500" width="2048" height="500" xmlns="http://www.w3.org/2000/svg" xmlns:xlink="http://www.w3.org/1999/xlink" version="1.1"><path d="M0 260L48.8 265C97.7 270 195.3 280 292.8 264C390.3 248 487.7 206 585.2 184C682.7 162 780.3 160 877.8 172C975.3 184 1072.7 210 1170.2 219.7C1267.7 229.3 1365.3 222.7 1462.8 242.3C1560.3 262 1657.7 308 1755.2 302.3C1852.7 296.7 1950.3 239.3 1999.2 210.7L2048 182L2048 501L1999.2 501C1950.3 501 1852.7 501 1755.2 501C1657.7 501 1560.3 501 1462.8 501C1365.3 501 1267.7 501 1170.2 501C1072.7 501 975.3 501 877.8 501C780.3 501 682.7 501 585.2 501C487.7 501 390.3 501 292.8 501C195.3 501 97.7 501 48.8 501L0 501Z" fill="#ffffff" stroke-linecap="round" stroke-linejoin="miter"></path></svg>